<mxfile host="app.diagrams.net" modified="2024-08-05T08:59:26.064Z" agent="Mozilla/5.0 (Windows NT 10.0; Win64; x64) AppleWebKit/537.36 (KHTML, like Gecko) Chrome/127.0.0.0 Safari/537.36" etag="BkbAlOC7ThCHjd8yiOSv" version="24.6.2" type="device">
  <diagram name="第 1 页" id="QoSk1VxCqyyqVpta2l48">
    <mxGraphModel dx="1259" dy="655" grid="1" gridSize="10" guides="1" tooltips="1" connect="1" arrows="1" fold="1" page="1" pageScale="1" pageWidth="827" pageHeight="1169" math="0" shadow="0">
      <root>
        <mxCell id="0" />
        <mxCell id="1" parent="0" />
        <mxCell id="THcAqn720dvvTDoKIieD-42" value="" style="rounded=0;whiteSpace=wrap;html=1;strokeWidth=1;" vertex="1" parent="1">
          <mxGeometry x="40" y="10" width="770" height="410" as="geometry" />
        </mxCell>
        <mxCell id="THcAqn720dvvTDoKIieD-6" value="" style="group" vertex="1" connectable="0" parent="1">
          <mxGeometry x="390" y="30" width="78" height="110" as="geometry" />
        </mxCell>
        <mxCell id="THcAqn720dvvTDoKIieD-5" value="" style="sketch=0;outlineConnect=0;fontColor=#232F3E;gradientColor=none;fillColor=#232F3D;strokeColor=none;dashed=0;verticalLabelPosition=bottom;verticalAlign=top;align=center;html=1;fontSize=12;fontStyle=0;aspect=fixed;pointerEvents=1;shape=mxgraph.aws4.authenticated_user;" vertex="1" parent="THcAqn720dvvTDoKIieD-6">
          <mxGeometry width="78" height="78" as="geometry" />
        </mxCell>
        <mxCell id="THcAqn720dvvTDoKIieD-3" value="&lt;font face=&quot;Times New Roman&quot;&gt;&lt;b&gt;使用者 A&lt;/b&gt;&lt;/font&gt;" style="text;html=1;align=center;verticalAlign=middle;resizable=0;points=[];autosize=1;strokeColor=none;fillColor=none;" vertex="1" parent="THcAqn720dvvTDoKIieD-6">
          <mxGeometry x="4" y="80" width="70" height="30" as="geometry" />
        </mxCell>
        <mxCell id="THcAqn720dvvTDoKIieD-7" value="" style="sketch=0;outlineConnect=0;fontColor=#232F3E;gradientColor=none;fillColor=#232F3D;strokeColor=none;dashed=0;verticalLabelPosition=bottom;verticalAlign=top;align=center;html=1;fontSize=12;fontStyle=0;aspect=fixed;pointerEvents=1;shape=mxgraph.aws4.generic_database;" vertex="1" parent="1">
          <mxGeometry x="90" y="230" width="59" height="78" as="geometry" />
        </mxCell>
        <mxCell id="THcAqn720dvvTDoKIieD-12" value="" style="group" vertex="1" connectable="0" parent="1">
          <mxGeometry x="384" y="230" width="90" height="108" as="geometry" />
        </mxCell>
        <mxCell id="THcAqn720dvvTDoKIieD-31" style="edgeStyle=orthogonalEdgeStyle;rounded=0;orthogonalLoop=1;jettySize=auto;html=1;" edge="1" parent="THcAqn720dvvTDoKIieD-12" source="THcAqn720dvvTDoKIieD-8">
          <mxGeometry relative="1" as="geometry">
            <mxPoint x="216" y="39" as="targetPoint" />
          </mxGeometry>
        </mxCell>
        <mxCell id="THcAqn720dvvTDoKIieD-8" value="" style="sketch=0;outlineConnect=0;fontColor=#232F3E;gradientColor=none;fillColor=#232F3D;strokeColor=none;dashed=0;verticalLabelPosition=bottom;verticalAlign=top;align=center;html=1;fontSize=12;fontStyle=0;aspect=fixed;pointerEvents=1;shape=mxgraph.aws4.traditional_server;" vertex="1" parent="THcAqn720dvvTDoKIieD-12">
          <mxGeometry x="22.5" width="45" height="78" as="geometry" />
        </mxCell>
        <mxCell id="THcAqn720dvvTDoKIieD-11" value="&lt;font face=&quot;Times New Roman&quot;&gt;&lt;b&gt;Jshop Server&lt;/b&gt;&lt;/font&gt;" style="text;html=1;align=center;verticalAlign=middle;resizable=0;points=[];autosize=1;strokeColor=none;fillColor=none;" vertex="1" parent="THcAqn720dvvTDoKIieD-12">
          <mxGeometry y="78" width="90" height="30" as="geometry" />
        </mxCell>
        <mxCell id="THcAqn720dvvTDoKIieD-23" value="" style="group" vertex="1" connectable="0" parent="1">
          <mxGeometry x="599.9999999999999" y="210" width="190.6300000000001" height="78.80999999999996" as="geometry" />
        </mxCell>
        <mxCell id="THcAqn720dvvTDoKIieD-21" value="" style="group" vertex="1" connectable="0" parent="THcAqn720dvvTDoKIieD-23">
          <mxGeometry y="30.000000000000014" width="190.6300000000001" height="48.809999999999945" as="geometry" />
        </mxCell>
        <mxCell id="THcAqn720dvvTDoKIieD-15" value="" style="shape=offPageConnector;whiteSpace=wrap;html=1;rotation=-90;size=0.1388888888888889;" vertex="1" parent="THcAqn720dvvTDoKIieD-21">
          <mxGeometry x="70.91000000000008" y="-70.91000000000003" width="48.81" height="190.63" as="geometry" />
        </mxCell>
        <mxCell id="THcAqn720dvvTDoKIieD-14" value="" style="sketch=0;outlineConnect=0;fontColor=#232F3E;gradientColor=none;fillColor=#232F3D;strokeColor=none;dashed=0;verticalLabelPosition=bottom;verticalAlign=top;align=center;html=1;fontSize=12;fontStyle=0;aspect=fixed;pointerEvents=1;shape=mxgraph.aws4.email_2;" vertex="1" parent="THcAqn720dvvTDoKIieD-21">
          <mxGeometry x="10.91118644067808" y="9.454999999999984" width="47.59322033898305" height="29.898305084745765" as="geometry" />
        </mxCell>
        <mxCell id="THcAqn720dvvTDoKIieD-16" value="" style="sketch=0;outlineConnect=0;fontColor=#232F3E;gradientColor=none;fillColor=#232F3D;strokeColor=none;dashed=0;verticalLabelPosition=bottom;verticalAlign=top;align=center;html=1;fontSize=12;fontStyle=0;aspect=fixed;pointerEvents=1;shape=mxgraph.aws4.email_2;" vertex="1" parent="THcAqn720dvvTDoKIieD-21">
          <mxGeometry x="62.60610169491531" y="9.454999999999984" width="47.59322033898305" height="29.898305084745765" as="geometry" />
        </mxCell>
        <mxCell id="THcAqn720dvvTDoKIieD-17" value="" style="sketch=0;outlineConnect=0;fontColor=#232F3E;gradientColor=none;fillColor=#232F3D;strokeColor=none;dashed=0;verticalLabelPosition=bottom;verticalAlign=top;align=center;html=1;fontSize=12;fontStyle=0;aspect=fixed;pointerEvents=1;shape=mxgraph.aws4.email_2;" vertex="1" parent="THcAqn720dvvTDoKIieD-21">
          <mxGeometry x="114.47050847457638" y="9.454999999999984" width="47.59322033898305" height="29.898305084745765" as="geometry" />
        </mxCell>
        <mxCell id="THcAqn720dvvTDoKIieD-22" value="&lt;font face=&quot;Times New Roman&quot;&gt;&lt;b&gt;訊息同步佇列&lt;/b&gt;&lt;/font&gt;" style="text;html=1;align=center;verticalAlign=middle;resizable=0;points=[];autosize=1;strokeColor=none;fillColor=none;" vertex="1" parent="THcAqn720dvvTDoKIieD-23">
          <mxGeometry x="34.000000000000114" width="100" height="30" as="geometry" />
        </mxCell>
        <mxCell id="THcAqn720dvvTDoKIieD-27" style="edgeStyle=orthogonalEdgeStyle;rounded=0;orthogonalLoop=1;jettySize=auto;html=1;exitX=0.5;exitY=1;exitDx=0;exitDy=0;exitPerimeter=0;" edge="1" parent="1" source="THcAqn720dvvTDoKIieD-3" target="THcAqn720dvvTDoKIieD-8">
          <mxGeometry relative="1" as="geometry" />
        </mxCell>
        <mxCell id="THcAqn720dvvTDoKIieD-33" style="edgeStyle=orthogonalEdgeStyle;rounded=0;orthogonalLoop=1;jettySize=auto;html=1;entryX=0.5;entryY=1.043;entryDx=0;entryDy=0;entryPerimeter=0;" edge="1" parent="1" source="THcAqn720dvvTDoKIieD-15" target="THcAqn720dvvTDoKIieD-11">
          <mxGeometry relative="1" as="geometry">
            <Array as="points">
              <mxPoint x="695" y="390" />
              <mxPoint x="429" y="390" />
            </Array>
          </mxGeometry>
        </mxCell>
        <mxCell id="THcAqn720dvvTDoKIieD-35" style="edgeStyle=orthogonalEdgeStyle;rounded=0;orthogonalLoop=1;jettySize=auto;html=1;" edge="1" parent="1" source="THcAqn720dvvTDoKIieD-8" target="THcAqn720dvvTDoKIieD-7">
          <mxGeometry relative="1" as="geometry" />
        </mxCell>
        <mxCell id="THcAqn720dvvTDoKIieD-37" value="&lt;b&gt;1&lt;/b&gt;" style="text;html=1;align=center;verticalAlign=middle;resizable=0;points=[];autosize=1;strokeColor=none;fillColor=none;" vertex="1" parent="1">
          <mxGeometry x="430" y="170" width="30" height="30" as="geometry" />
        </mxCell>
        <mxCell id="THcAqn720dvvTDoKIieD-38" value="&lt;b&gt;2&lt;/b&gt;" style="text;html=1;align=center;verticalAlign=middle;resizable=0;points=[];autosize=1;strokeColor=none;fillColor=none;" vertex="1" parent="1">
          <mxGeometry x="510" y="234.4" width="30" height="30" as="geometry" />
        </mxCell>
        <mxCell id="THcAqn720dvvTDoKIieD-39" value="&lt;b&gt;3&lt;/b&gt;" style="text;html=1;align=center;verticalAlign=middle;resizable=0;points=[];autosize=1;strokeColor=none;fillColor=none;" vertex="1" parent="1">
          <mxGeometry x="540" y="360" width="30" height="30" as="geometry" />
        </mxCell>
        <mxCell id="THcAqn720dvvTDoKIieD-26" value="" style="group" vertex="1" connectable="0" parent="1">
          <mxGeometry x="260" y="243" width="75" height="82.00333333333333" as="geometry" />
        </mxCell>
        <mxCell id="THcAqn720dvvTDoKIieD-34" value="" style="group" vertex="1" connectable="0" parent="THcAqn720dvvTDoKIieD-26">
          <mxGeometry x="-15" width="90" height="82.00333333333333" as="geometry" />
        </mxCell>
        <mxCell id="THcAqn720dvvTDoKIieD-25" value="&lt;font face=&quot;Times New Roman&quot;&gt;&lt;b&gt;Spring Batch&lt;/b&gt;&lt;/font&gt;" style="text;html=1;align=center;verticalAlign=middle;resizable=0;points=[];autosize=1;strokeColor=none;fillColor=none;" vertex="1" parent="THcAqn720dvvTDoKIieD-34">
          <mxGeometry y="52.00333333333333" width="90" height="30" as="geometry" />
        </mxCell>
        <mxCell id="THcAqn720dvvTDoKIieD-24" value="" style="sketch=0;outlineConnect=0;fontColor=#232F3E;gradientColor=none;fillColor=#232F3D;strokeColor=none;dashed=0;verticalLabelPosition=bottom;verticalAlign=top;align=center;html=1;fontSize=12;fontStyle=0;aspect=fixed;pointerEvents=1;shape=mxgraph.aws4.gear;" vertex="1" parent="THcAqn720dvvTDoKIieD-34">
          <mxGeometry x="19" width="52" height="52" as="geometry" />
        </mxCell>
        <mxCell id="THcAqn720dvvTDoKIieD-41" value="&lt;b&gt;4&lt;/b&gt;" style="text;html=1;align=center;verticalAlign=middle;resizable=0;points=[];autosize=1;strokeColor=none;fillColor=none;" vertex="1" parent="1">
          <mxGeometry x="270" y="213" width="30" height="30" as="geometry" />
        </mxCell>
      </root>
    </mxGraphModel>
  </diagram>
</mxfile>
